<svg width="12" height="8" viewBox="0 0 12 8" fill="none" xmlns="http://www.w3.org/2000/svg">
<path d="M11.6101 1.88356C11.7547 1.73288 11.8337 1.5411 11.8337 1.31507C11.8337 0.863014 11.4917 0.5 11.0576 0.5C10.8406 0.5 10.6433 0.595891 10.4921 0.753425L5.99375 5.54795L1.50859 0.753425C1.35733 0.595891 1.15346 0.5 0.943016 0.5C0.508969 0.5 0.166992 0.863014 0.166992 1.31507C0.166992 1.5411 0.24591 1.73288 0.390592 1.88356L5.38871 7.21233C5.5597 7.40411 5.77015 7.49315 6.00033 7.5C6.2305 7.5 6.4278 7.40411 6.60536 7.21233L11.6101 1.88356Z" fill="#A0A0A2"/>
</svg>
